<?xml version="1.0" encoding="utf-8"?>
<!-- Generator: Adobe Illustrator 16.0.0, SVG Export Plug-In . SVG Version: 6.00 Build 0)  -->
<!DOCTYPE svg PUBLIC "-//W3C//DTD SVG 1.1//EN" "http://www.w3.org/Graphics/SVG/1.1/DTD/svg11.dtd">
<svg version="1.1" id="Capa_1" xmlns="http://www.w3.org/2000/svg" xmlns:xlink="http://www.w3.org/1999/xlink" x="0px" y="0px"
	 width="348.228px" height="512px" viewBox="81.886 0 348.228 512" enable-background="new 81.886 0 348.228 512"
	 xml:space="preserve">
<path fill="#FFFFFF" d="M255.959,128.516l90.33,157.534c13.835,24.128,17.446,52.199,10.168,79.043
	c-7.279,26.844-24.575,49.246-48.704,63.081C291.979,437.219,274.126,442,256.121,442c-18.067,0-35.931-4.713-51.66-13.627
	c-16.109-9.131-29.537-22.524-38.831-38.733c-9.164-15.981-13.915-34.136-13.739-52.502c0.171-17.925,4.94-35.62,13.791-51.178
	L255.959,128.516 M255.959,0c-4.081,0-8.161,2.025-10.483,6.074L104.904,251.231c-29.54,51.83-31.821,117.732,0,173.228
	c32.174,56.112,90.862,87.54,151.217,87.54c29.378,0,59.14-7.438,86.452-23.1c83.426-47.836,112.277-154.243,64.441-237.669
	L266.442,6.074C264.121,2.024,260.04,0,255.959,0L255.959,0z"/>
</svg>
